PathFileType	4	(X/Y/Z)	OpenSim_Sub05_CSBaseline_Gyro.trc
DataRate	CameraRate	NumFrames	NumMarkers	Units	OrigDataRate	OrigDataStartFrame	OrigNumFrames
100	100	27	8	m	100	2640	10557
Frame#	Time	torso_imu_offset_imu	pelvis_imu_offset_imu	tibia_r_imu_offset_imu	femur_r_imu_offset_imu	tibia_l_imu_offset_imu	femur_l_imu_offset_imu	toes_r_imu_offset_imu	toes_l_imu_offset_imu
				X1	Y1	Z1	X2	Y2	Z2	X3	Y3	Z3	X4	Y4	Z4	X5	Y5	Z5	X6	Y6	Z6	X7	Y7	Z7	X8		Y8	Z8	

2640	26.39000000	-0.34503826	0.00107954	0.02609931	0.13375941	-0.12543326	0.13926350	-0.38919793	-0.36988942	0.15237093	-0.92795827	-0.56747407	0.38349732	0.31573768	0.08760529	1.29933129	-0.08402981	0.13661806	0.30470139	0.88468643	-0.11735201	-0.44322947	-0.02540863	-0.71917937	0.30433499
2641	26.40000000	-0.32235945	0.01551588	0.03015205	0.13797129	-0.09140609	0.13521351	-0.19649113	-0.38118164	-0.45717768	-1.18626927	-0.30133785	0.43500121	0.36159999	0.13864674	1.38763630	0.05212876	0.13965023	0.27895177	1.06309293	-0.89915943	-0.75872991	0.04009887	-0.89446974	0.34202884
2642	26.41000000	-0.26821794	0.05957389	0.02868720	0.21090026	-0.12194759	0.06957260	0.01667199	-0.33385367	-1.04766005	-1.32973670	-0.17338404	0.55180262	0.37154803	0.09843624	1.46504717	0.18394766	0.11815836	0.23045213	0.98984007	-1.70904053	-0.67748287	0.14809525	-1.10492634	0.41049800
2643	26.42000000	-0.20544928	0.11622567	0.01355832	0.27673852	-0.15919611	-0.03779948	0.33534078	-0.22460064	-1.72405415	-1.40796466	-0.19782458	0.66792323	0.45802202	0.05171758	1.53076438	0.29612611	0.09411616	0.17300858	0.19197545	-2.81713883	-0.52678075	0.18532567	-1.36304632	0.50476948
2644	26.43000000	-0.13748013	0.15348393	0.01923414	0.29152894	-0.14878895	-0.14644028	0.70263438	-0.26817685	-2.37949123	-1.54196989	-0.36069834	0.75794148	0.52431798	0.03413823	1.60048516	0.40294559	0.08894753	0.13960850	0.01280706	-2.49101000	-0.53870543	0.19029315	-1.69294215	0.59932202
2645	26.44000000	-0.09607496	0.16510257	0.02005625	0.28887347	-0.18139702	-0.20387120	1.08850698	-0.36457055	-2.24739784	-1.89969105	-0.89294184	0.66167584	0.52531900	0.03929419	1.70757324	0.54680176	0.20763519	0.08484551	1.25965394	-0.89804527	-0.56719278	0.21420773	-2.07484045	0.65105595
2646	26.45000000	-0.05198676	0.17177877	0.02186550	0.24722025	-0.21962604	-0.17667906	0.95925316	-0.36166010	-1.47217199	-1.24413148	-1.30758948	0.36026794	0.52307421	0.10381555	1.77737549	0.58278561	0.31694344	-0.03343498	0.89798959	-0.84508799	-0.60634858	0.25137569	-2.50993035	0.68936960
2647	26.46000000	0.00925693	0.15143722	0.04344548	0.13916554	-0.19548758	-0.06566509	0.97501794	-0.06728160	-1.22959505	0.06228022	-1.36347626	0.10378029	0.44116109	0.10923003	1.83285413	0.63771420	0.40403274	-0.11063507	0.12816306	-1.53719793	-0.42843860	0.33858117	-2.98094119	0.75866415
2648	26.47000000	0.03986839	0.13402132	0.06385658	0.05182871	-0.17787122	0.06068755	1.81054144	0.42218412	-1.41364634	0.62197145	-0.79883616	-0.01884844	0.33929567	0.07456873	1.91975617	0.68966010	0.49452332	-0.16782025	0.86654830	-0.56073595	-0.20197477	0.44208157	-3.40972049	0.81671045
2649	26.48000000	0.05765023	0.13787836	0.11253400	0.03292875	-0.20885801	0.13107973	2.13587129	0.26706081	-1.48421590	0.61207393	-0.18905226	-0.19456766	0.32451841	0.07176722	1.97083252	0.61852330	0.55833971	-0.27121311	0.48272278	-0.35292045	-0.24074540	0.47608764	-3.75579034	0.86561826
2650	26.49000000	0.10779154	0.17736809	0.16104187	0.07749537	-0.25564113	0.12338216	1.59043236	-0.50448738	-1.54675511	0.64118435	0.10842041	-0.23684606	0.20585693	0.07172163	2.04272154	0.48612081	0.61204298	-0.37400671	0.28790916	-0.35939668	-0.22488711	0.56776072	-3.98201385	0.83790374
2651	26.50000000	0.16871061	0.21710820	0.20428556	0.14596807	-0.27123513	0.04807030	1.02854412	-0.62342985	-1.57965371	0.87745182	-0.13341379	-0.12211545	0.05082402	0.10975068	2.11470060	0.35336819	0.62938155	-0.51689641	0.27584992	-0.10399485	-0.17679378	0.47158268	-4.17337456	0.85036250
2652	26.51000000	0.23443114	0.24658885	0.22116438	0.19753887	-0.22376316	-0.02818634	0.29017739	-0.14731803	-1.37121440	0.92351465	-0.50384301	-0.17749964	-0.22464065	0.10626935	2.19206776	0.45731411	0.75449100	-0.59749930	0.21179115	0.03432558	-0.17497305	0.21905026	-4.33179744	0.88742351
2653	26.52000000	0.30278438	0.24700011	0.22567822	0.25081800	-0.15450910	-0.05931717	-0.49394740	-0.13086861	-1.07244525	0.72305302	-0.50409900	-0.44947057	-0.62655317	0.06474451	2.27935461	0.39123505	0.81037320	-0.81839651	0.26480298	0.11686374	-0.18758044	0.01334783	-4.38821170	0.90823500
2654	26.53000000	0.36619601	0.22089259	0.22457103	0.29107458	-0.07958616	-0.04680167	-0.50852939	-0.29432350	-0.95818843	0.38202011	-0.44444977	-0.70676108	-1.01054916	-0.02046432	2.32811218	0.25741461	0.84489840	-0.96970357	0.26862483	0.14879595	-0.18027683	-0.27648594	-4.19465581	0.92375209
2655	26.54000000	0.41001807	0.17939423	0.22601705	0.31755933	0.00080611	0.00322265	-0.07515669	-0.29223861	-0.97103501	-0.06867448	-0.59269935	-0.84666963	-1.23654466	-0.08997310	2.39993930	0.10643963	0.86580081	-1.07551440	0.29853202	0.17411898	-0.12709643	-0.16576942	-4.10929670	0.99026290
2656	26.55000000	0.44059454	0.13019183	0.24277313	0.33354492	0.07493666	0.05242338	0.08276779	-0.28881249	-0.94135944	-0.56572189	-0.71375398	-0.84259736	-1.14074505	-0.13768525	2.43128173	-0.05128889	0.88525418	-1.17181811	0.27411031	0.15331285	-0.06380207	-0.06539028	-3.92876356	1.08864133
2657	26.56000000	0.46576589	0.09690520	0.26821816	0.32572170	0.11972442	0.07393985	0.23147866	-0.25894632	-0.85097422	-0.91371118	-0.61926206	-0.77817663	-0.74491649	-0.19913338	2.35750479	-0.06919635	0.82833769	-1.24794814	0.19214534	0.07085776	0.00510495	-0.59790854	-3.47655262	1.21607438
2658	26.57000000	0.47798887	0.06704543	0.28020063	0.28362108	0.11095667	0.06954585	0.32858818	-0.19696714	-0.81932077	-0.94427201	-0.46280214	-0.75523081	-0.76991233	-0.27617426	2.20860034	-0.02699842	0.76901713	-1.30830844	0.05485727	-0.02666746	0.08150023	-0.78752591	-2.77852484	1.17393008
2659	26.58000000	0.49966722	0.03781449	0.28853953	0.21660858	0.09328379	0.04166303	0.32037872	-0.19311555	-0.83440962	-0.69715044	-0.35164961	-0.75339521	-0.39346499	-0.24924280	1.97334637	0.00253138	0.72160789	-1.28386689	-0.00963184	-0.08360174	0.12917211	-0.50940439	-1.74452715	0.84858032
2660	26.59000000	0.50746469	-0.00434289	0.31636386	0.12847001	0.10099168	0.00566559	0.24903433	-0.22307806	-0.76609465	-0.33565125	-0.29684207	-0.73656843	0.18898886	-0.12537948	1.56617418	-0.08154470	0.69725691	-1.25730002	-0.01514910	-0.11852426	0.12732241	-0.08799276	-1.28807484	0.61955535
2661	26.60000000	0.50529681	-0.04237653	0.35317450	0.04457002	0.12299831	-0.04487049	0.00842423	-0.24365443	-0.78044444	-0.05902299	-0.27393437	-0.68477900	0.44500365	-0.14187157	0.99683036	-0.04059427	0.75171286	-1.10571645	-0.03290142	-0.14959456	0.08569942	-0.29885557	-0.68878475	0.50685706
2662	26.61000000	0.49984120	-0.06281827	0.38946959	-0.01211971	0.12684029	-0.08117280	-0.16408990	-0.25560734	-0.74108359	0.10016946	-0.28839932	-0.67558887	0.54579445	-0.14453550	0.56631634	0.03838716	0.69667312	-0.98044602	-0.02393825	-0.14239032	0.05426648	-0.61865594	0.20691801	0.38543331
2663	26.62000000	0.50293107	-0.07465992	0.41455042	-0.04309591	0.11339587	-0.12231626	-0.17171533	-0.22828143	-0.68351097	0.11018422	-0.34796121	-0.71975181	0.32826330	-0.10755948	0.20948062	0.12269790	0.63593570	-0.89338520	0.00682055	-0.14076535	0.02187303	-0.76714579	1.04693259	0.27977940
2664	26.63000000	0.52518417	-0.08942770	0.42052357	-0.05451569	0.08725684	-0.15665784	-0.04671214	-0.20956010	-0.64205905	-0.04523451	-0.41466837	-0.77760386	0.05479557	-0.16812010	-0.20573646	0.05188748	0.59445500	-0.86938590	0.01457746	-0.15382405	0.00000080	-0.55803951	1.33857928	0.23753101
2665	26.64000000	0.54333901	-0.09245483	0.40867044	-0.04035142	0.06755535	-0.18801898	0.15145362	-0.22190484	-0.59154871	-0.25775855	-0.45897270	-0.81969677	0.12127054	-0.13874166	-0.69758265	0.01482260	0.49397603	-0.90760161	0.02900928	-0.15890048	-0.01425654	-0.21042473	1.52472316	0.19210207
2666	26.65000000	0.56119258	-0.08965671	0.38915742	-0.01531153	0.04824773	-0.22084334	0.24104862	-0.21260026	-0.57716642	-0.40565873	-0.45342430	-0.85108317	0.32566445	-0.03101880	-1.13913233	0.04852406	0.44011401	-0.86523177	0.03399417	-0.15329688	-0.02311994	-0.05377765	1.85555342	0.10801898
